<?xml version="1.0" standalone="no"?>
<!DOCTYPE svg PUBLIC "-//W3C//DTD SVG 20010904//EN" "http://www.w3.org/TR/2001/REC-SVG-20010904/DTD/svg10.dtd">
<!-- Created using Krita: https://krita.org -->
<svg xmlns="http://www.w3.org/2000/svg" 
    xmlns:xlink="http://www.w3.org/1999/xlink"
    xmlns:krita="http://krita.org/namespaces/svg/krita"
    xmlns:sodipodi="http://sodipodi.sourceforge.net/DTD/sodipodi-0.dtd"
    width="172.32pt"
    height="172.32pt"
    viewBox="0 0 172.32 172.32">
<defs/>
<circle id="shape0" transform="matrix(0.99999998616653 0 0 0.99999998616653 9.8399993143733 9.77999937360443)" r="76.3200010557705" cx="76.3200010557705" cy="76.3200010557705" fill="none" stroke="#ffffff" stroke-width="19.2" stroke-linecap="square" stroke-linejoin="bevel"/><path id="shape1" transform="translate(2.79164316226455, 51.3589971351517)" fill="#ffffff" fill-rule="evenodd" stroke-opacity="0" stroke="#000000" stroke-width="0" stroke-linecap="square" stroke-linejoin="bevel" d="M2.42465 12.4833L4.60574 12.4373L6.70864 12.3755L8.73579 12.2983L10.6895 12.2065L12.5724 12.1004L14.3866 11.9806L16.1349 11.8477L17.8194 11.7021L19.4428 11.5445L21.0074 11.3754L22.5156 11.1953L23.9699 11.0046L25.3726 10.8042L26.7263 10.5943L28.0334 10.3755L29.2963 10.1485L30.5173 9.91364L31.699 9.67163L32.8437 9.42279L33.9541 9.16792L35.0323 8.90736L36.0809 8.64178L37.1022 8.37154L38.0988 8.09732L39.0731 7.81968L40.0274 7.53908L40.9642 7.25609L41.8859 6.97128L42.795 6.68498L43.694 6.39801L44.5851 6.11081L45.4709 5.82383L46.3538 5.53777L47.2362 5.25296L48.1206 4.97008L49.0093 4.6896L49.9048 4.41219L50.8096 4.13819L51.726 3.86829L52.6564 3.60294L53.6035 3.34272L54.5694 3.08807L55.5568 2.8398L56.568 2.59814L57.6052 2.36375L58.6713 2.13722L59.7685 1.91889L60.8991 1.70955L62.0658 1.50966L63.2708 1.31967L64.5165 1.14016L65.8057 0.971683L67.1404 0.81482L68.5232 0.670024L69.9565 0.537863L71.4429 0.418907L72.9845 0.313611L74.584 0.222544L76.2438 0.14639L77.9662 0.0854889L79.7538 0.0404109L81.6088 0.0117248L83.5339 0L85.4597 0.00569167L87.3172 0.0283445L89.1089 0.0673894L90.836 0.122371L92.5025 0.19272L94.1083 0.277754L95.6583 0.377016L97.1534 0.489939L98.5962 0.615839L99.9876 0.754261L101.332 0.904635L102.631 1.06639L103.886 1.23885L105.099 1.42155L106.274 1.61393L107.412 1.81542L108.516 2.02544L109.587 2.24343L110.629 2.46882L111.644 2.70104L112.632 2.93952L113.598 3.18369L114.543 3.43299L115.469 3.68684L116.38 3.94479L117.276 4.20603L118.16 4.47024L119.034 4.73672L119.902 5.00492L120.765 5.27436L121.625 5.54437L122.485 5.81439L123.346 6.08394L124.212 6.35236L125.084 6.61907L125.965 6.88362L126.856 7.14544L127.762 7.40373L128.681 7.65826L129.619 7.90824L130.577 8.15321L131.557 8.39249L132.562 8.62562L133.593 8.85192L134.654 9.07105L135.746 9.28221L136.87 9.48495L138.031 9.67858L139.23 9.86276L140.47 10.0367L141.752 10.1999L143.079 10.3519L144.453 10.492L145.877 10.6198L147.353 10.7345L148.882 10.8357L150.466 10.9228L152.111 10.9952L153.816 11.0524L155.584 11.0938L157.417 11.1187L159.316 11.1268L161.287 11.1173L161.46 11.7164L161.632 12.3087L161.8 12.8944L161.965 13.4739L162.128 14.0473L162.288 14.6151L162.444 15.1774L162.598 15.7345L162.747 16.2868L162.892 16.8345L163.033 17.3778L163.17 17.917L163.303 18.4525L163.431 18.9846L163.553 19.5133L163.672 20.0391L163.784 20.5623L163.893 21.0831L163.994 21.6018L164.091 22.1186L164.18 22.634L164.265 23.148L164.344 23.661L164.415 24.1733L164.48 24.6851L164.537 25.1968L164.588 25.7086L164.633 26.2207L164.669 26.7337L164.697 27.2474L164.718 27.7624L164.73 28.2789L164.735 28.7971L164.732 29.3175L164.72 29.8401L164.699 30.3654L164.669 30.8935L164.63 31.4249L164.582 31.9595L164.524 32.498L164.457 33.0405L164.38 33.5871L164.293 34.1384L164.196 34.6945L164.088 35.2557L162.936 35.2909L161.761 35.3775L160.563 35.5149L159.345 35.7024L158.107 35.9394L156.851 36.2252L155.579 36.5592L154.291 36.9407L152.989 37.3689L151.675 37.8431L150.35 38.3634L149.014 38.928L147.671 39.537L146.32 40.1892L144.965 40.8848L143.604 41.6224L142.241 42.401L140.875 43.2206L139.511 44.0812L138.147 44.9805L136.786 45.9185L135.43 46.8952L134.078 47.9094L132.734 48.9613L131.398 50.0484L130.07 51.1708L128.755 52.3285L127.451 53.5203L126.16 54.7463L124.887 56.0041L123.628 57.295L122.387 58.6177L121.166 59.9712L119.965 61.3543L118.786 62.767L117.631 64.2092L116.501 65.6788L115.396 67.1769L114.319 68.7023L113.272 70.2527L112.253 71.8293L111.267 73.4309L110.314 75.0576L109.396 76.707L108.512 78.3792L107.667 80.0742L106.86 81.7897L106.093 83.5279L105.367 85.2855L104.683 87.0625L104.044 88.8588L103.451 90.6733L102.903 92.506L102.405 94.3558L101.956 96.2215L101.559 98.102L101.212 99.9985L100.92 101.91L100.683 103.834L100.503 105.771L100.38 107.721L100.317 109.682L100.315 111.655L99.7487 111.869L99.1917 112.072L98.6439 112.263L98.1044 112.445L97.5741 112.617L97.0509 112.779L96.5358 112.93L96.0265 113.071L95.5243 113.204L95.0278 113.327L94.5372 113.441L94.0524 113.546L93.5711 113.643L93.0933 113.73L92.6202 113.809L92.1505 113.88L91.6832 113.943L91.2182 113.999L90.7544 114.046L90.293 114.087L89.8315 114.118L89.3711 114.145L88.9097 114.163L88.4482 114.175L87.9863 114.181L87.5227 114.18L87.0571 114.172L86.5891 114.159L86.1183 114.14L85.6442 114.115L85.1664 114.085L84.6843 114.05L84.1975 114.009L83.7056 113.964L83.2081 113.913L82.7046 113.859L82.1945 113.8L81.6773 113.736L81.1528 113.669L80.6202 113.598L80.0794 113.523L79.5295 113.445L78.9705 113.364L78.4016 113.278L77.8225 113.192L77.2327 113.101L76.6318 113.009L76.0191 112.913L75.3944 112.816L74.7572 112.717L74.1069 112.616L73.4431 112.513L72.7653 112.409L72.0732 112.304L71.3662 112.197L70.6438 112.09L69.9056 111.982L69.1512 111.874L68.3801 111.764L67.5917 111.655L67.5614 109.985L67.4713 108.306L67.3227 106.62L67.1172 104.927L66.8558 103.229L66.54 101.527L66.1711 99.8221L65.7504 98.1145L65.2794 96.4082L64.7592 94.7007L64.1912 92.9966L63.5767 91.2936L62.9172 89.5964L62.2139 87.9037L61.4682 86.2178L60.6813 84.5399L59.8546 82.8711L58.9896 81.2126L58.0874 79.5642L57.1494 77.9296L56.177 76.3086L55.1714 74.7013L54.134 73.111L53.0663 71.5378L51.9693 69.9829L50.8446 68.4473L49.6934 66.9333L48.5171 65.4398L47.317 63.9713L46.0944 62.5257L44.8507 61.1061L43.5872 59.714L42.3053 58.3491L41.0062 57.0127L39.6913 55.707L38.3619 54.4332L37.0194 53.1913L35.6651 51.9835L34.3002 50.8111L32.9263 49.675L31.5445 48.5754L30.1563 47.5156L28.7629 46.4945L27.3657 45.5144L25.966 44.5775L24.5651 43.6828L23.1645 42.8325L21.7654 42.0288L20.369 41.2707L18.9769 40.5615L17.5903 39.9013L16.2105 39.2922L14.8389 38.7345L13.4768 38.229L12.1256 37.7771L10.7865 37.3812L9.46088 37.0413L8.15008 36.759L6.85548 36.5354L5.57836 36.3717L4.32 36.2691L3.08192 36.2286L1.86528 36.2517L1.76261 35.7151L1.65866 35.1913L1.55378 34.6794L1.44866 34.1784L1.34355 33.6875L1.23901 33.2058L1.13553 32.7322L1.03356 32.2659L0.933688 31.8059L0.836264 31.3513L0.741869 30.9012L0.650855 30.4548L0.563919 30.0108L0.481178 29.5686L0.403448 29.1271L0.331079 28.6856L0.264537 28.2429L0.204405 27.7981L0.150914 27.3504L0.104766 26.8988L0.0664256 26.4425L0.0362428 25.9803L0.0148001 25.5116L0.0025638 25.0353L0 24.5504L0.00757485 24.056L0.025871 23.5513L0.0551216 23.0353L0.0960258 22.507L0.14905 21.9656L0.214543 21.4101L0.292972 20.8396L0.385036 20.253L0.490967 19.6497L0.611465 19.0285L0.746764 18.3885L0.897562 17.729L1.06421 17.0488L1.24729 16.3472L1.44715 15.623L1.66437 14.8755L1.89931 14.1036L2.15266 13.3066L2.42465 12.4833" sodipodi:nodetypes="cccccccccccccccccccccccccccccccccccccccccccccccccccccccccccccccccccccccccccccccccccccccccccccccccccccccccccccccccccccccccccccccccccccccccccccccccccccccccccccccccccccccccccccccccccccccccccccccccccccccccccccccccccccccccccccccccccccccccccccccccccccccccccccccccccccccccccccccccccccccccccccccccccccccccccccccccccccccccccccccccccccccccccccccccccccccccccccccccccccccccccccccccccccccccccccccccccccccccccccccccc"/>
</svg>
