<?xml version="1.0" encoding="UTF-8" standalone="no"?>
<!-- Created using Krita: https://krita.org -->

<svg
   width="448.2pt"
   height="232.2pt"
   viewBox="0 0 448.2 232.2"
   version="1.1"
   id="svg795"
   sodipodi:docname="mic.svg"
   inkscape:version="1.2.1 (9c6d41e410, 2022-07-14)"
   xmlns:inkscape="http://www.inkscape.org/namespaces/inkscape"
   xmlns:sodipodi="http://sodipodi.sourceforge.net/DTD/sodipodi-0.dtd"
   xmlns="http://www.w3.org/2000/svg"
   xmlns:svg="http://www.w3.org/2000/svg">
  <sodipodi:namedview
     id="namedview797"
     pagecolor="#505050"
     bordercolor="#eeeeee"
     borderopacity="1"
     inkscape:showpageshadow="0"
     inkscape:pageopacity="0"
     inkscape:pagecheckerboard="0"
     inkscape:deskcolor="#505050"
     inkscape:document-units="pt"
     showgrid="false"
     inkscape:zoom="1.0123828"
     inkscape:cx="456.84299"
     inkscape:cy="108.65455"
     inkscape:window-width="1920"
     inkscape:window-height="1009"
     inkscape:window-x="1912"
     inkscape:window-y="-8"
     inkscape:window-maximized="1"
     inkscape:current-layer="svg795" />
  <defs
     id="defs766">
    <radialGradient
       id="gradient0"
       gradientUnits="userSpaceOnUse"
       cx="72.742637"
       cy="-5.4090662"
       fx="72.742637"
       fy="-5.4090662"
       r="186.61296"
       spreadMethod="pad"
       gradientTransform="matrix(-1.3899917,-1.0036308,0.14479283,-0.27322857,441.27571,238.22665)">
      <stop
         stop-color="#121212"
         offset="0.0144999995827675"
         stop-opacity="1"
         id="stop684" />
      <stop
         stop-color="#1a1a1a"
         offset="0.380400002002716"
         stop-opacity="1"
         id="stop686" />
      <stop
         stop-color="#0e0e0e"
         offset="0.972400009632111"
         stop-opacity="1"
         id="stop688" />
    </radialGradient>
    <linearGradient
       id="gradient1"
       gradientUnits="userSpaceOnUse"
       x1="55.587072"
       y1="67.057428"
       x2="149.53054"
       y2="172.64196"
       spreadMethod="pad"
       gradientTransform="matrix(1.4785686,0,0,0.67632971,13.225412,0.03840487)">
      <stop
         stop-color="#d5d8e0"
         offset="0.0846000015735626"
         stop-opacity="1"
         id="stop691" />
      <stop
         stop-color="#898686"
         offset="0.569199979305267"
         stop-opacity="1"
         id="stop693" />
    </linearGradient>
    <linearGradient
       id="gradient2"
       gradientUnits="userSpaceOnUse"
       x1="-1.693656e-07"
       y1="-1.4760967e-06"
       x2="10.77689"
       y2="10.776889"
       spreadMethod="pad"
       gradientTransform="matrix(5.9466078,6.1795863e-8,0,0.60066597,-73.518269,65.529871)">
      <stop
         stop-color="#121212"
         offset="0.0846000015735626"
         stop-opacity="1"
         id="stop696" />
      <stop
         stop-color="#222222"
         offset="0.569199979305267"
         stop-opacity="1"
         id="stop698" />
    </linearGradient>
    <linearGradient
       id="gradient3"
       gradientUnits="userSpaceOnUse"
       x1="-1.693656e-07"
       y1="-1.4760967e-06"
       x2="10.77689"
       y2="10.776889"
       spreadMethod="pad"
       gradientTransform="matrix(5.9466075,3.2509447e-8,0,0.60066597,-73.322672,55.107123)">
      <stop
         stop-color="#121212"
         offset="0.0846000015735626"
         stop-opacity="1"
         id="stop701" />
      <stop
         stop-color="#222222"
         offset="0.569199979305267"
         stop-opacity="1"
         id="stop703" />
    </linearGradient>
    <linearGradient
       id="gradient4"
       gradientUnits="userSpaceOnUse"
       x1="-1.693656e-07"
       y1="-1.4760967e-06"
       x2="10.77689"
       y2="10.776889"
       spreadMethod="pad"
       gradientTransform="matrix(5.9466075,3.2509447e-8,0,0.60066597,-73.44353,44.776652)">
      <stop
         stop-color="#121212"
         offset="0.0846000015735626"
         stop-opacity="1"
         id="stop706" />
      <stop
         stop-color="#222222"
         offset="0.569199979305267"
         stop-opacity="1"
         id="stop708" />
    </linearGradient>
    <linearGradient
       id="gradient5"
       gradientUnits="userSpaceOnUse"
       x1="-1.693656e-07"
       y1="-1.4760967e-06"
       x2="10.77689"
       y2="10.776889"
       spreadMethod="pad"
       gradientTransform="matrix(5.9466075,3.2509447e-8,0,0.60066597,-73.806105,34.213452)">
      <stop
         stop-color="#121212"
         offset="0.0846000015735626"
         stop-opacity="1"
         id="stop711" />
      <stop
         stop-color="#222222"
         offset="0.569199979305267"
         stop-opacity="1"
         id="stop713" />
    </linearGradient>
    <linearGradient
       id="gradient6"
       gradientUnits="userSpaceOnUse"
       x1="-1.693656e-07"
       y1="-1.4760967e-06"
       x2="10.77689"
       y2="10.776889"
       spreadMethod="pad"
       gradientTransform="matrix(5.9466075,3.2509447e-8,0,0.60066597,-73.585124,23.823032)">
      <stop
         stop-color="#121212"
         offset="0.0846000015735626"
         stop-opacity="1"
         id="stop716" />
      <stop
         stop-color="#222222"
         offset="0.569199979305267"
         stop-opacity="1"
         id="stop718" />
    </linearGradient>
    <linearGradient
       id="gradient7"
       gradientUnits="userSpaceOnUse"
       x1="-2.3237645e-07"
       y1="-1.0758405e-06"
       x2="7.8546442"
       y2="7.8546434"
       spreadMethod="pad"
       gradientTransform="matrix(4.334134,-2.0050643e-8,0,0.82413796,-73.812049,13.781023)">
      <stop
         stop-color="#121212"
         offset="0.0846000015735626"
         stop-opacity="1"
         id="stop721" />
      <stop
         stop-color="#222222"
         offset="0.569199979305267"
         stop-opacity="1"
         id="stop723" />
    </linearGradient>
    <linearGradient
       id="gradient8"
       gradientUnits="userSpaceOnUse"
       x1="-2.3237645e-07"
       y1="-1.0758405e-06"
       x2="7.8546442"
       y2="7.8546434"
       spreadMethod="pad"
       gradientTransform="matrix(4.3341337,-4.1395779e-8,0,0.82413792,-44.094625,75.534817)">
      <stop
         stop-color="#121212"
         offset="0.0846000015735626"
         stop-opacity="1"
         id="stop726" />
      <stop
         stop-color="#222222"
         offset="0.569199979305267"
         stop-opacity="1"
         id="stop728" />
    </linearGradient>
    <linearGradient
       id="gradient9"
       gradientUnits="userSpaceOnUse"
       x1="10.767881"
       y1="0.086675099"
       x2="-0.01510263"
       y2="10.610484"
       spreadMethod="pad"
       gradientTransform="matrix(1.9466291,0,0,1.4220568,-32.186856,129.31378)">
      <stop
         stop-color="#3b3e45"
         offset="0.0846000015735626"
         stop-opacity="1"
         id="stop731" />
      <stop
         stop-color="#272727"
         offset="0.569199979305267"
         stop-opacity="1"
         id="stop733" />
    </linearGradient>
    <linearGradient
       id="gradient10"
       gradientUnits="userSpaceOnUse"
       x1="10.767881"
       y1="0.086675099"
       x2="-0.01510263"
       y2="10.610484"
       spreadMethod="pad"
       gradientTransform="matrix(1.9466291,0,0,1.4220568,-32.288079,147.92899)">
      <stop
         stop-color="#3b3e45"
         offset="0.0846000015735626"
         stop-opacity="1"
         id="stop736" />
      <stop
         stop-color="#272727"
         offset="0.569199979305267"
         stop-opacity="1"
         id="stop738" />
    </linearGradient>
    <linearGradient
       id="gradient11"
       gradientUnits="userSpaceOnUse"
       x1="10.767881"
       y1="0.086675099"
       x2="-0.01510263"
       y2="10.610484"
       spreadMethod="pad"
       gradientTransform="matrix(1.9466291,0,0,1.4220568,-32.010895,166.33617)">
      <stop
         stop-color="#3b3e45"
         offset="0.0846000015735626"
         stop-opacity="1"
         id="stop741" />
      <stop
         stop-color="#272727"
         offset="0.569199979305267"
         stop-opacity="1"
         id="stop743" />
    </linearGradient>
    <linearGradient
       id="gradient12"
       gradientUnits="userSpaceOnUse"
       x1="10.767881"
       y1="0.086675099"
       x2="-0.01510263"
       y2="10.610484"
       spreadMethod="pad"
       gradientTransform="matrix(1.9466291,0,0,1.4220568,-58.168653,129.58807)">
      <stop
         stop-color="#3b3e45"
         offset="0.0846000015735626"
         stop-opacity="1"
         id="stop746" />
      <stop
         stop-color="#272727"
         offset="0.569199979305267"
         stop-opacity="1"
         id="stop748" />
    </linearGradient>
    <linearGradient
       id="gradient13"
       gradientUnits="userSpaceOnUse"
       x1="10.767881"
       y1="0.086675099"
       x2="-0.01510263"
       y2="10.610484"
       spreadMethod="pad"
       gradientTransform="matrix(1.9466291,0,0,1.4220568,-57.987832,148.41009)">
      <stop
         stop-color="#3b3e45"
         offset="0.0846000015735626"
         stop-opacity="1"
         id="stop751" />
      <stop
         stop-color="#272727"
         offset="0.569199979305267"
         stop-opacity="1"
         id="stop753" />
    </linearGradient>
    <linearGradient
       id="gradient14"
       gradientUnits="userSpaceOnUse"
       x1="10.767881"
       y1="0.086675099"
       x2="-0.01510263"
       y2="10.610484"
       spreadMethod="pad"
       gradientTransform="matrix(1.9466291,0,0,1.4220568,-58.320802,166.65997)">
      <stop
         stop-color="#3b3e45"
         offset="0.0846000015735626"
         stop-opacity="1"
         id="stop756" />
      <stop
         stop-color="#272727"
         offset="0.569199979305267"
         stop-opacity="1"
         id="stop758" />
    </linearGradient>
    <linearGradient
       id="gradient15"
       gradientUnits="userSpaceOnUse"
       x1="19.40845"
       y1="1.7998088"
       x2="46.026668"
       y2="2.024785"
       spreadMethod="pad"
       gradientTransform="matrix(1.7703196,0,-0.02175946,0.53339041,73.457859,104.62661)">
      <stop
         stop-color="#4e4e4e"
         offset="0"
         stop-opacity="1"
         id="stop761" />
      <stop
         stop-color="#666666"
         offset="1"
         stop-opacity="1"
         id="stop763" />
    </linearGradient>
  </defs>
  <path
     id="shape1"
     fill="url(#gradient0)"
     fill-rule="evenodd"
     stroke-opacity="0"
     stroke="#000000"
     stroke-width="0"
     stroke-linecap="square"
     stroke-linejoin="bevel"
     d="M 424.75225,224.96436 C 385.0315,178.01643 347.84391,130.05154 256.80748,103.70138 c -9.91059,-2.86833 -13.34986,-12.042859 -11.11919,-19.179922 2.57953,-8.254527 13.94836,-5.506048 20.50983,-3.139575 65.55261,23.641597 123.05977,51.378657 171.25753,119.027327 4.16287,5.84284 14.35921,19.94662 9.00105,27.94481 -3.97392,5.93191 -14.3112,5.34879 -21.70445,-3.38966 z"
     sodipodi:nodetypes="cssssss"
     style="fill:url(#gradient0)" />
  <rect
     id="shape0"
     transform="matrix(0.99025166,0.13928982,0,1,0,0)"
     fill="#1a1a1a"
     fill-rule="evenodd"
     stroke="#1a1a1a"
     stroke-width="1.45516"
     stroke-linecap="square"
     stroke-linejoin="bevel"
     width="67.79454"
     height="50.399998"
     rx="25.721491"
     ry="16.936573"
     x="198.12582"
     y="27.242706" />
  <rect
     id="shape11"
     fill="#1a1a1a"
     fill-rule="evenodd"
     stroke-opacity="0"
     stroke="#000000"
     stroke-width="0"
     stroke-linecap="square"
     stroke-linejoin="bevel"
     width="160.31999"
     height="44.639996"
     rx="9.6936283"
     ry="9.6936283"
     x="42.768101"
     y="92.689812" />
  <path
     id="shape2"
     fill="#262626"
     fill-rule="evenodd"
     stroke-opacity="0"
     stroke="#000000"
     stroke-width="0"
     stroke-linecap="square"
     stroke-linejoin="bevel"
     d="M 20.857076,4.4178901 C -2.2534228,21.464288 -9.8998218,88.254682 18.048076,121.96088 c 85.432494,25.471 44.412796,3.562 146.719484,12.112 53.149,-7.056 44.598,-6.003 66.543,-50.123898 C 137.78257,50.329885 67.631671,23.819588 20.857076,4.4178901 Z"
     sodipodi:nodetypes="ccccc" />
  <path
     id="shape3"
     fill="#404040"
     fill-rule="evenodd"
     stroke-opacity="0"
     stroke="#000000"
     stroke-width="0"
     stroke-linecap="square"
     stroke-linejoin="bevel"
     d="m 85.008103,95.321302 2.88,-94.0799902 C 130.9112,8.0533112 117.515,6.5428913 160.8642,9.5090811 c 22.36269,1.5301789 45.48489,12.7452279 65.40589,20.4398279 13.809,14.431798 12.299,25.723297 4.92,55.200094 -18.033,5.8659 -35.119,8.3442 -53.01589,8.0249 -64.8492,-1.1568 -55.2227,-8.6126 -93.166097,2.147399 z"
     sodipodi:nodetypes="ccsccsc" />
  <path
     id="shape4"
     fill="url(#gradient1)"
     fill-rule="evenodd"
     stroke-opacity="0"
     stroke="#000000"
     stroke-width="0"
     stroke-linecap="square"
     stroke-linejoin="bevel"
     d="M 24.590611,84.858396 C 5.5835921,46.3352 14.917402,11.545503 20.517682,4.4179045 32.17081,-0.10757812 54.769908,-1.125815 88.315105,1.3632048 109.3825,11.703403 90.919805,9.0617141 165.2764,13.751703 c 9.221,0.5816 25.625,6.0121 49.21499,16.291699 10.522,19.185998 8.332,27.589297 5.43,41.917296 -20.33599,7.687699 -34.29999,11.123799 -41.89099,10.308299 -80.985896,-5.9412 -64.8656,-13.099499 -92.782295,13.412298 -26.643797,0 -24.623297,-0.3012 -60.657494,-10.822899 z"
     sodipodi:nodetypes="cccsccccc"
     style="fill:url(#gradient1)" />
  <rect
     id="shape03"
     transform="matrix(-0.44383523,-0.89610841,0.99725515,0.07404163,0,0)"
     fill="url(#gradient2)"
     stroke-opacity="0"
     stroke="#000000"
     stroke-width="0"
     stroke-linecap="square"
     stroke-linejoin="bevel"
     width="64.085938"
     height="6.4733095"
     rx="3.5154476"
     ry="3.1447511"
     style="fill:url(#gradient2)"
     x="-73.518272"
     y="65.529869" />
  <rect
     id="shape04"
     transform="matrix(-0.44383523,-0.89610841,0.99725515,0.07404163,0,0)"
     fill="url(#gradient3)"
     stroke-opacity="0"
     stroke="#000000"
     stroke-width="0"
     stroke-linecap="square"
     stroke-linejoin="bevel"
     width="64.08593"
     height="6.473309"
     rx="3.5154476"
     ry="3.1447511"
     style="fill:url(#gradient3)"
     x="-73.32267"
     y="55.107124" />
  <rect
     id="shape05"
     transform="matrix(-0.44383523,-0.89610841,0.99725515,0.07404163,0,0)"
     fill="url(#gradient4)"
     stroke-opacity="0"
     stroke="#000000"
     stroke-width="0"
     stroke-linecap="square"
     stroke-linejoin="bevel"
     width="64.08593"
     height="6.473309"
     rx="3.5154476"
     ry="3.1447511"
     style="fill:url(#gradient4)"
     x="-73.443527"
     y="44.776653" />
  <rect
     id="shape06"
     transform="matrix(-0.44383523,-0.89610841,0.99725515,0.07404163,0,0)"
     fill="url(#gradient5)"
     stroke-opacity="0"
     stroke="#000000"
     stroke-width="0"
     stroke-linecap="square"
     stroke-linejoin="bevel"
     width="64.08593"
     height="6.473309"
     rx="3.5154476"
     ry="3.1447511"
     style="fill:url(#gradient5)"
     x="-73.806107"
     y="34.213451" />
  <rect
     id="shape07"
     transform="matrix(-0.44383523,-0.89610841,0.99725515,0.07404163,0,0)"
     fill="url(#gradient6)"
     stroke-opacity="0"
     stroke="#000000"
     stroke-width="0"
     stroke-linecap="square"
     stroke-linejoin="bevel"
     width="64.08593"
     height="6.473309"
     rx="3.5154476"
     ry="3.1447511"
     style="fill:url(#gradient6)"
     x="-73.585121"
     y="23.823032" />
  <rect
     id="shape071"
     transform="matrix(-0.44383523,-0.89610841,0.99725515,0.07404163,0,0)"
     fill="url(#gradient7)"
     stroke-opacity="0"
     stroke="#000000"
     stroke-width="0"
     stroke-linecap="square"
     stroke-linejoin="bevel"
     width="34.043079"
     height="6.473309"
     rx="1.8674405"
     ry="3.1447508"
     style="fill:url(#gradient7)"
     x="-73.81205"
     y="13.781024" />
  <rect
     id="shape072"
     transform="matrix(-0.44383523,-0.89610841,0.99725515,0.07404163,0,0)"
     fill="url(#gradient8)"
     stroke-opacity="0"
     stroke="#000000"
     stroke-width="0"
     stroke-linecap="square"
     stroke-linejoin="bevel"
     width="34.043079"
     height="6.4733086"
     rx="1.8674403"
     ry="3.1447508"
     style="fill:url(#gradient8)"
     x="-44.094627"
     y="75.534821" />
  <rect
     id="shape02"
     transform="matrix(-0.06068935,-0.9981567,0.99835095,0.05740549,0,0)"
     fill="#1a1a1a"
     stroke-opacity="0"
     stroke="#000000"
     stroke-width="0"
     stroke-linecap="square"
     stroke-linejoin="bevel"
     width="22.824377"
     height="15.336254"
     rx="3.3542104"
     ry="4.0014744"
     x="-34.050995"
     y="129.32217" />
  <rect
     id="shape021"
     transform="matrix(-0.06068935,-0.9981567,0.99835095,0.05740549,0,0)"
     fill="url(#gradient9)"
     stroke-opacity="0"
     stroke="#000000"
     stroke-width="0"
     stroke-linecap="square"
     stroke-linejoin="bevel"
     width="20.993536"
     height="15.336254"
     rx="3.0851548"
     ry="4.0014744"
     style="fill:url(#gradient9)"
     x="-32.186855"
     y="129.3138" />
  <rect
     id="shape022"
     transform="matrix(-0.06068935,-0.9981567,0.99835095,0.05740549,0,0)"
     fill="#1a1a1a"
     stroke-opacity="0"
     stroke="#000000"
     stroke-width="0"
     stroke-linecap="square"
     stroke-linejoin="bevel"
     width="22.824377"
     height="15.336254"
     rx="3.3542104"
     ry="4.0014744"
     x="-34.152218"
     y="147.93738" />
  <rect
     id="shape0211"
     transform="matrix(-0.06068935,-0.9981567,0.99835095,0.05740549,0,0)"
     fill="url(#gradient10)"
     stroke-opacity="0"
     stroke="#000000"
     stroke-width="0"
     stroke-linecap="square"
     stroke-linejoin="bevel"
     width="20.993536"
     height="15.336255"
     rx="3.0851548"
     ry="4.0014744"
     style="fill:url(#gradient10)"
     x="-32.288078"
     y="147.929" />
  <rect
     id="shape023"
     transform="matrix(-0.06068935,-0.9981567,0.99835095,0.05740549,0,0)"
     fill="#1a1a1a"
     stroke-opacity="0"
     stroke="#000000"
     stroke-width="0"
     stroke-linecap="square"
     stroke-linejoin="bevel"
     width="22.824377"
     height="15.336254"
     rx="3.3542104"
     ry="4.0014744"
     x="-33.875034"
     y="166.34456" />
  <rect
     id="shape02111"
     transform="matrix(-0.06068935,-0.9981567,0.99835095,0.05740549,0,0)"
     fill="url(#gradient11)"
     stroke-opacity="0"
     stroke="#000000"
     stroke-width="0"
     stroke-linecap="square"
     stroke-linejoin="bevel"
     width="20.993536"
     height="15.336255"
     rx="3.0851548"
     ry="4.0014744"
     style="fill:url(#gradient11)"
     x="-32.010895"
     y="166.33618" />
  <rect
     id="shape024"
     transform="matrix(-0.06068935,-0.9981567,0.99835095,0.05740549,0,0)"
     fill="#1a1a1a"
     stroke-opacity="0"
     stroke="#000000"
     stroke-width="0"
     stroke-linecap="square"
     stroke-linejoin="bevel"
     width="22.824377"
     height="15.336254"
     rx="3.3542104"
     ry="4.0014744"
     x="-60.032795"
     y="129.59647" />
  <rect
     id="shape0212"
     transform="matrix(-0.06068935,-0.9981567,0.99835095,0.05740549,0,0)"
     fill="url(#gradient12)"
     stroke-opacity="0"
     stroke="#000000"
     stroke-width="0"
     stroke-linecap="square"
     stroke-linejoin="bevel"
     width="20.993536"
     height="15.336255"
     rx="3.0851548"
     ry="4.0014744"
     style="fill:url(#gradient12)"
     x="-58.168652"
     y="129.58809" />
  <rect
     id="shape025"
     transform="matrix(-0.06068935,-0.9981567,0.99835095,0.05740549,0,0)"
     fill="#1a1a1a"
     stroke-opacity="0"
     stroke="#000000"
     stroke-width="0"
     stroke-linecap="square"
     stroke-linejoin="bevel"
     width="22.824377"
     height="15.336254"
     rx="3.3542104"
     ry="4.0014744"
     x="-59.851974"
     y="148.41847" />
  <rect
     id="shape0213"
     transform="matrix(-0.06068935,-0.9981567,0.99835095,0.05740549,0,0)"
     fill="url(#gradient13)"
     stroke-opacity="0"
     stroke="#000000"
     stroke-width="0"
     stroke-linecap="square"
     stroke-linejoin="bevel"
     width="20.993536"
     height="15.336255"
     rx="3.0851548"
     ry="4.0014744"
     style="fill:url(#gradient13)"
     x="-57.987831"
     y="148.4101" />
  <rect
     id="shape026"
     transform="matrix(-0.06068935,-0.9981567,0.99835095,0.05740549,0,0)"
     fill="#1a1a1a"
     stroke-opacity="0"
     stroke="#000000"
     stroke-width="0"
     stroke-linecap="square"
     stroke-linejoin="bevel"
     width="22.824377"
     height="15.336254"
     rx="3.3542104"
     ry="4.0014744"
     x="-60.184944"
     y="166.66837" />
  <rect
     id="shape0214"
     transform="matrix(-0.06068935,-0.9981567,0.99835095,0.05740549,0,0)"
     fill="url(#gradient14)"
     stroke-opacity="0"
     stroke="#000000"
     stroke-width="0"
     stroke-linecap="square"
     stroke-linejoin="bevel"
     width="20.993536"
     height="15.336255"
     rx="3.0851548"
     ry="4.0014744"
     style="fill:url(#gradient14)"
     x="-58.320801"
     y="166.65999" />
  <path
     id="shape01"
     fill="#808080"
     fill-rule="evenodd"
     stroke-opacity="0"
     stroke="#000000"
     stroke-width="0"
     stroke-linecap="square"
     stroke-linejoin="bevel"
     d="m 83.928065,103.24129 c 15.651599,-2.33085 15.0893,-4.919984 30.600045,-6.719988 21.1355,0 32.38444,0.960003 58.07996,2.160003 4.68083,0 10.1849,5.806755 10.01056,10.080355 l -0.64502,13.25062 c -0.17434,4.27359 -4.10948,7.73804 -8.7908,7.73804 -20.54508,0 -41.43277,-2.9283 -61.97805,-2.9283 -10.1009,0 -19.859608,2.9283 -29.960456,2.9283 -4.680744,0 -8.668581,-1.51234 -8.494242,-5.78593 l 0.326705,-12.69194 c 0.174339,-4.27358 4.077503,-7.35051 10.851298,-8.03116 z"
     sodipodi:nodetypes="ccccccccccc" />
  <path
     id="shape5"
     fill="url(#gradient15)"
     fill-rule="evenodd"
     stroke-opacity="0"
     stroke="#000000"
     stroke-width="0"
     stroke-linecap="square"
     stroke-linejoin="bevel"
     d="m 81.897306,108.52131 c 7.024203,-1.43005 19.186304,-3.8947 28.710954,-3.8947 21.1665,0 42.67084,3.0547 63.83744,3.0547 4.6872,0 8.34014,3.61407 8.15827,8.07222 l -0.66853,13.82291 c -0.18186,4.45815 -4.12868,8.07223 -8.81687,8.07223 -20.57522,0 -41.48857,-3.05477 -62.064,-3.05477 -10.11573,0 -19.893738,3.05477 -30.009408,3.05477 -4.687613,0 -8.678727,-1.57765 -8.496858,-6.03581 l 0.348786,-13.2401 c 0.181869,-4.45817 2.215294,-9.1414 9.000216,-9.85145 z"
     sodipodi:nodetypes="ccccccccccc"
     style="fill:url(#gradient15)" />
</svg>
